# xmcd
#
# Track frame offsets: 
#        150
#        12410
#        34304
#        50869
#        67883
#        79677
#        96641
#        109907
#        126019
#        143358
#        158453
#
# Disc length: 2355 seconds
#
# Revision: 0
# Processed by: cddbd v1.5.2PL0 Copyright (c) Steve Scherf et al.
# Submitted via: ExactAudioCopyFreeDBPlugin 1.0
#
DISCID=8e09310b
DTITLE=Nathan James - Natural Born That Way
DYEAR=2014
DGENRE=Blues
TTITLE0=I'm Gonna Leave
TTITLE1=Look Out Your Window
TTITLE2=Natural Born That Way
TTITLE3=Look Before I Leap
TTITLE4=Take You Back Home
TTITLE5=Doing the Same to You
TTITLE6=Ride With Me Baby
TTITLE7=It Must Have Been Love
TTITLE8=I'm Gonna Tell Them
TTITLE9=Cow Pies
TTITLE10=Don't Believe What People Say
EXTD=
EXTT0=
EXTT1=
EXTT2=
EXTT3=
EXTT4=
EXTT5=
EXTT6=
EXTT7=
EXTT8=
EXTT9=
EXTT10=
PLAYORDER=
